<svg xmlns="http://www.w3.org/2000/svg" viewBox="0 0 240.52 330.92" xml:space="preserve"><path d="M11.81 111.67a163 163 0 0 0-10.4-4.33C.81 102.85.37 98.35.1 93.83c-.22-3.72-.08-7.39.36-10.99 2.43.4 5.87 1 10.15 1.83-.42 5.11-.46 10.49 0 16.17q.435 5.445 1.2 10.83m39.96 23.59c-10.22-7.5-19.82-13.31-28.16-17.77C21.92 107.1 21.2 96.8 21.83 87c7.71 1.7 16.83 3.9 26.86 6.69-.66 13.11.57 27.21 3.08 41.57m104.96 5.47c-.1 1.13-.23 2.28-.35 3.43-13.96 7.29-27.86 17.12-40.35 30.37a190 190 0 0 0-11.09 12.86c-3.78-4.78-7.81-9.62-12.09-14.48-1.92-2.17-3.84-4.28-5.78-6.34-3.21-21.5-5.25-42.71-5.63-62.59 24.85 8.82 51.68 20.79 75.29 36.75" style="fill:#2ac64b"/><path d="M14.86 63.78a91 91 0 0 0-4.25 20.89c-4.28-.83-7.72-1.43-10.15-1.83.27-2.27.68-4.51 1.19-6.72 3.05-3.28 7.46-7.61 13.21-12.34" style="fill:#008a5a"/><path d="M63.49 36.38c-7.35 13.48-13.24 31.65-14.73 55.89-.02.47-.05.95-.07 1.42A522 522 0 0 0 21.84 87c.01-.33.04-.64.06-.97.96-12.71 4.71-24.37 10.38-34.72 8.77-5.41 19.16-10.67 31.21-14.93" style="fill:#009550"/><path d="M156.73 140.73c-23.61-15.96-50.44-27.93-75.29-36.75-.48-23.68 1.36-45.45 6.26-63.49.13-.5.27-.99.41-1.47 19.71 11.65 45.39 24.64 69.77 30.34 2.13 21.5 1.49 45.93-1.15 71.37" style="fill:#00983e"/><path d="M240.42 93.83c-.6 10-2.03 19.9-4.25 29.8-2.81.11-6.05.29-9.64.6 1.58-7.63 2.74-15.44 3.38-23.39 2.14-26.76-6.51-47.14-16.51-61.37 2.93.83 5.71 1.65 8.3 2.45 11.23 14.24 19.9 32.54 18.72 51.91m-24.99 31.69a195.5 195.5 0 0 0-26 5.54c2.14-13.43 3.07-26.55 2.32-38.79-1.7-27.91-9.26-47.76-18.15-61.7 8.36 1.38 16.29 3.01 23.61 4.72 11.67 13.78 19.93 30.98 21.41 50.75.94 12.6-.41 26.04-3.19 39.48" style="fill:#009a37"/><path d="M157.88 69.36c-24.38-5.71-50.06-18.7-69.77-30.34 1.04-3.61 2.2-6.89 3.48-9.87 3.61-.62 7.33-1.12 11.16-1.51 15.4-1.57 30.78-1.42 45.42-.22 1.73 3.82 3.31 8.15 4.65 13.07 2.38 8.8 4.05 18.49 5.06 28.87" style="fill:#00863f"/><path d="M52.63 14.42c-.81.5-27 16.62-37.77 49.35C9.11 68.5 4.7 72.84 1.66 76.11c7.12-30.88 35.54-56.1 50.97-61.69M69.2 27.16c-1.97 2.8-3.89 5.87-5.71 9.22a162.4 162.4 0 0 0-31.21 14.94c6.71-12.31 16.14-22.8 26.77-31.12 2.52 1.8 5.97 4.19 10.15 6.96" style="fill:#06cbf6"/><linearGradient id="a" gradientUnits="userSpaceOnUse" x1="-44827.844" y1="22705.225" x2="-44251.563" y2="22687.76" gradientTransform="matrix(.253 0 0 -.253 11407.768 5761.934)"><stop offset="0" style="stop-color:#0288f7"/><stop offset="1" style="stop-color:#2ee2bd"/></linearGradient><path d="M221.7 41.92c-2.59-.8-5.37-1.62-8.3-2.45-11.82-16.82-25.53-25.06-25.53-25.06 9.09 3.29 22.72 13.42 33.83 27.51m-24.49-6.63c-7.31-1.71-15.24-3.34-23.6-4.72C158.61 7.01 139.77.32 138.85.01c20.19 4.05 42.45 16.5 58.36 35.28m-49.04-7.87c-14.64-1.21-30.02-1.35-45.42.22-3.83.39-7.54.89-11.16 1.51C102.41 3.65 120.01 0 120.01 0h.5s16.8 3.48 27.66 27.42M101.68.01c-.87.3-17.91 6.35-32.48 27.15-4.17-2.76-7.63-5.15-10.15-6.95C72.33 9.83 87.51 2.85 101.68.01" style="fill:url(#a)"/><path d="M120.26 330.92h18.09l6.69-29.2H95.48l6.69 29.2z" style="fill:#666565"/><linearGradient id="b" gradientUnits="userSpaceOnUse" x1="-44783.742" y1="21855.781" x2="-44925.496" y2="22206.326" gradientTransform="matrix(.253 0 0 -.253 11407.768 5761.934)"><stop offset="0" style="stop-color:#cb1918"/><stop offset=".388" style="stop-color:#a2183d"/><stop offset=".749" style="stop-color:#902869"/><stop offset="1" style="stop-color:#73358a"/></linearGradient><path d="M51.95 200.22c3.48 7.19 6.8 13.61 9.66 18.97 4.9 9.17 9.56 16.97 14.37 24.07 1.39-4.86 3.12-9.99 5.28-15.31a536 536 0 0 1-11.03-27.31c-7.74-20.79-14.61-43.41-18.45-65.38-10.22-7.49-19.82-13.31-28.16-17.76 4.77 29.57 17.34 60.02 28.33 82.72" style="fill:url(#b)"/><linearGradient id="c" gradientUnits="userSpaceOnUse" x1="-44855.375" y1="21826.824" x2="-44997.133" y2="22177.373" gradientTransform="matrix(.253 0 0 -.253 11407.768 5761.934)"><stop offset="0" style="stop-color:#cb1918"/><stop offset=".388" style="stop-color:#a2183d"/><stop offset=".749" style="stop-color:#902869"/><stop offset="1" style="stop-color:#73358a"/></linearGradient><path d="M35.61 199.85c1.97 3.44 4.02 6.9 6.14 10.39 9.93 16.28 21.4 31.32 31.61 43.54.3-1.48.65-3.01 1.04-4.56-4.13-5.68-8.16-11.44-11.63-16.79-4.97-7.65-12.16-18.74-19.66-32.39-12.84-23.41-26.55-54.36-31.31-88.36a166 166 0 0 0-10.39-4.33c4.11 30.47 15.77 60.39 34.2 92.5" style="fill:url(#c)"/><linearGradient id="d" gradientUnits="userSpaceOnUse" x1="-44658.57" y1="21906.41" x2="-44800.328" y2="22256.963" gradientTransform="matrix(.253 0 0 -.253 11407.768 5761.934)"><stop offset="0" style="stop-color:#cb1918"/><stop offset=".388" style="stop-color:#a2183d"/><stop offset=".749" style="stop-color:#902869"/><stop offset="1" style="stop-color:#73358a"/></linearGradient><path d="M88.86 177.92c1.29 7.7 2.8 15.52 4.43 23.25.16.74.31 1.47.47 2.21 3.26-5.27 6.97-10.62 11.17-15.98q-5.85-7.395-12.09-14.49c-1.92-2.17-3.84-4.28-5.78-6.33.57 3.77 1.16 7.55 1.8 11.34" style="fill:url(#d)"/><path d="M226.52 124.23c-4.6 22.34-12.7 43.03-21.32 60.73 1.74 1.75 3.44 3.5 5.09 5.22 12.28-22.83 21.01-44.67 25.88-66.55-2.82.11-6.05.28-9.65.6m-37.08 6.83c-1.69 10.67-4.12 21.53-7.06 32.3 5.08 4.58 10.63 9.71 16.09 14.97 6.83-16.3 13.21-34.57 16.97-52.81-7.84 1.13-16.67 2.88-26 5.54" style="fill:#97cc1a"/><linearGradient id="e" gradientUnits="userSpaceOnUse" x1="-44367.238" y1="22104.824" x2="-44572.949" y2="21880.125" gradientTransform="matrix(.253 0 0 -.253 11407.768 5761.934)"><stop offset="0" style="stop-color:#add816"/><stop offset="1" style="stop-color:#dbd704"/></linearGradient><path d="M116.03 174.52c-4.04 4.28-7.72 8.58-11.09 12.87 14.69 18.56 25.61 36.21 33.52 50.97 2.87-11.1 5.85-23.39 8.52-35.98a572 572 0 0 0 4.68-24.46c1.91-11.32 3.5-22.63 4.72-33.76-13.97 7.29-27.86 17.11-40.35 30.36m89.17 10.44c-.33.68-.66 1.35-.99 2.02-9.75 19.67-20 35.47-26.47 45.44-7.47 11.51-17.54 24.99-25.52 35.3.29.76.57 1.47.83 2.15 12.36-13.46 30.78-35.15 45.71-59.63 3.75-6.15 7.25-12.2 10.52-18.19.34-.62.68-1.24 1.01-1.87-1.65-1.73-3.35-3.47-5.09-5.22m-22.82-21.6-.39 1.4c-9.47 34.19-23.89 67.31-35.3 90.13 1.24 2.71 2.37 5.24 3.36 7.56 10.54-12.54 19.22-25.24 28.86-43.26 5.29-9.92 12.15-23.44 18.7-38.82l.86-2.04a673 673 0 0 0-16.09-14.97" style="fill:url(#e)"/><linearGradient id="f" gradientUnits="userSpaceOnUse" x1="-44522.801" y1="21673.092" x2="-44697.914" y2="21968.398" gradientTransform="matrix(.253 0 0 -.253 11407.768 5761.934)"><stop offset="0" style="stop-color:#e1282b"/><stop offset=".388" style="stop-color:#e3402a"/><stop offset=".702" style="stop-color:#e76226"/><stop offset="1" style="stop-color:#f19a0a"/></linearGradient><path d="M129.77 284.65c7.7-7.98 14.29-15.06 20.28-22.2q-1.485-3.48-3.36-7.56c-8.08 16.18-14.67 27.18-16.92 29.76" style="fill:url(#f)"/><linearGradient id="g" gradientUnits="userSpaceOnUse" x1="-44511.613" y1="21679.725" x2="-44686.727" y2="21975.033" gradientTransform="matrix(.253 0 0 -.253 11407.768 5761.934)"><stop offset="0" style="stop-color:#e1282b"/><stop offset=".388" style="stop-color:#e3402a"/><stop offset=".702" style="stop-color:#e76226"/><stop offset="1" style="stop-color:#f19a0a"/></linearGradient><path d="M139.23 284.17c.41-.4 5.87-5.65 13.83-14.3-.27-.68-.54-1.39-.83-2.15-7.14 9.24-12.58 15.95-13 16.45" style="fill:url(#g)"/><linearGradient id="h" gradientUnits="userSpaceOnUse" x1="-44541.391" y1="21662.082" x2="-44716.5" y2="21957.383" gradientTransform="matrix(.253 0 0 -.253 11407.768 5761.934)"><stop offset="0" style="stop-color:#e1282b"/><stop offset=".388" style="stop-color:#e3402a"/><stop offset=".702" style="stop-color:#e76226"/><stop offset="1" style="stop-color:#f19a0a"/></linearGradient><path d="M93.76 203.37c9.1 42.57 21.58 81.61 21.58 81.61h9.84s6.33-19.83 13.28-46.63c-7.91-14.76-18.83-32.4-33.52-50.97-4.21 5.37-7.92 10.72-11.18 15.99" style="fill:url(#h)"/><linearGradient id="i" gradientUnits="userSpaceOnUse" x1="-44637.914" y1="21604.84" x2="-44813.027" y2="21900.148" gradientTransform="matrix(.253 0 0 -.253 11407.768 5761.934)"><stop offset="0" style="stop-color:#e1282b"/><stop offset=".388" style="stop-color:#e3402a"/><stop offset=".702" style="stop-color:#e76226"/><stop offset="1" style="stop-color:#f19a0a"/></linearGradient><path d="M75.97 243.26c9.95 14.77 20.43 26.52 34.77 41.39-3.34-3.82-16.28-26.31-29.49-56.69-2.16 5.31-3.89 10.44-5.28 15.3" style="fill:url(#i)"/><linearGradient id="j" gradientUnits="userSpaceOnUse" x1="-44670.285" y1="21585.648" x2="-44845.395" y2="21880.951" gradientTransform="matrix(.253 0 0 -.253 11407.768 5761.934)"><stop offset="0" style="stop-color:#e1282b"/><stop offset=".388" style="stop-color:#e3402a"/><stop offset=".702" style="stop-color:#e76226"/><stop offset="1" style="stop-color:#f19a0a"/></linearGradient><path d="M73.36 253.77c15.01 17.97 27.31 29.8 27.94 30.4-.66-.82-14.21-17.48-26.9-34.96-.38 1.55-.73 3.08-1.04 4.56" style="fill:url(#j)"/></svg>