<svg xmlns="http://www.w3.org/2000/svg" xml:space="preserve" width="350mm" height="210mm" style="shape-rendering:geometricPrecision;text-rendering:geometricPrecision;image-rendering:optimizeQuality;fill-rule:evenodd;clip-rule:evenodd" viewBox="0 0 35000 21000"><defs><style>.str0,.str1{stroke:#000;stroke-width:400;strokeLinecap:round;stroke-linejoin:round;stroke-miterlimit:22.9256}.str1{stroke-width:20}.fil0{fill:none}</style></defs><g id="Layer_x0020_1"><path class="fil0 str0" d="M202.73 4220.42H5557.8m0 0c954.23 0 1727.79 773.56 1727.79 1727.79 0 945.88-760.1 1714.24-1702.79 1727.61s-1412.91.19-1412.91.19"/><path class="fil0 str0" d="M5557.8 4220.42c954.23 0 1727.79 773.56 1727.79 1727.79 0 945.88-760.1 1714.24-1702.79 1727.61s-1412.91.19-1412.91.19m3.97 3463.93c-954.23 0-1727.79-773.56-1727.79-1727.79 0-945.88 760.1-1714.24 1702.79-1727.61m79.67 3460.07h3625.09m78.99 1.59c1046.84 0 1895.48 848.64 1895.48 1895.48v3196.49m.96 75.41c0 1380.71 1119.29 2500 2500 2500 1378.72 0 2496.78-1116.08 2499.99-2494.04s0-5823.09 0-5823.09m9.31-96.59c0-966.5 783.5-1750 1750-1750"/><path class="fil0 str1" d="M14838.35 10399.86h-9.31m9.31 0h-9.31"/><path class="fil0 str0" d="M16681.18 8652.46c966.5 0 1750-783.5 1750-1750V4273.52"/><path class="fil0 str0" d="M18429.7 4273.52c0-1144.8 928.04-2072.84 2072.84-2072.84s2072.84 928.04 2072.84 2072.84v1635.52"/><path class="fil0 str1" d="M18419.7 4273.52h11.48"/><path class="fil0 str0" d="M22575.38 5909.04c0 1144.8 920.83 2240.54 2065.63 2240.54h1635.52m3157.15 0h-3157.15m3157.15 4.96c1316.88 0 2384.42 1067.54 2384.42 2384.42s-1067.54 2384.42-2384.42 2384.42"/><path class="fil0 str1" d="M29433.68 8149.58v4.96"/><path class="fil0 str0" d="M26481.57 12923.38h2952.11m-2952.11 0c-1316.88 0-2322.27 1107.35-2322.27 2424.23s1067.54 2384.42 2384.42 2384.42m8321.34 0h-8321.34"/></g></svg>