<svg width="400" height="400" viewBox="0 0 400 400" xmlns="http://www.w3.org/2000/svg"><g fill="none" fill-rule="evenodd"><path stroke="#000" stroke-width="7" fill="#000" d="m191.101 30 .484 95.996h-7.304l-26.721 28.528v45.185h210.662l25.49-25.5v-48.213h-26.49l-.217-120.78-150.985-.462z"/><path fill="#BFBFBF" d="m184.757 129.49-23.732 25.034h192.751l24.249-25.034zM218.292 7.244 195 30.49h144l24.623-22.966z"/><path fill="gray" d="M334 30.49v117H195z"/><path fill="#FFF" d="M331 36v93H201z"/><path fill="#FFF" d="M195 148V30h144z"/><path fill="gray" d="M201 129.49v-93h130z"/><path fill="#007" d="M206.999 42h117v82h-117z"/><path fill="#0000DB" d="M213.999 49h110v75h-110z"/><path fill="#BFBFBF" d="M200.999 129h130v13h-130zm-28 39h181v19h-181z"/><path fill="#000" d="M278.999 177h63v10h-63z"/><path fill="#BFBFBF" d="M160.999 187h12v10h-12z"/><path fill="gray" d="m330.623 36.392 33-28.868V129l-21.624 18.524h-11.376z"/><path fill="#FFF" d="m390.431 129.49-36.432 38.727H173.41v18.586h-12.9v-32.28H354l24.026-25.033z"/><path fill="gray" d="m390.431 129.49-36.432 38.727V187h-181v10h193.399l24.033-23.031z"/><path stroke="#000" stroke-width="7" d="m367.222 125.996-25.223 25.022H191.585v-25.022"/><path stroke="#000" stroke-width="7" fill="#000" d="m37.101 225 .484 95.996h-7.304L3.56 349.524v45.185h210.662l25.49-25.5v-48.213h-26.49l-.217-120.78-150.985-.462z"/><path fill="#BFBFBF" d="M30.757 324.49 7.025 349.524h192.751l24.249-25.034zm33.535-122.246L41 225.49h144l24.623-22.966z"/><path fill="gray" d="M180 225.49v117H41z"/><path fill="#FFF" d="M177 231v93H47z"/><path fill="#FFF" d="M41 343V225h144z"/><path fill="gray" d="M47 324.49v-93h130z"/><path fill="#007" d="M52.999 237h117v82h-117z"/><path fill="#0000DB" d="M59.999 244h110v75h-110z"/><path fill="#BFBFBF" d="M46.999 324h130v13h-130zm-28 39h181v19h-181z"/><path fill="#000" d="M124.999 372h63v10h-63z"/><path fill="#BFBFBF" d="M6.999 382h12v10h-12z"/><path fill="gray" d="m176.623 231.392 33-28.868V324l-21.624 18.524h-11.376z"/><path fill="#FFF" d="m236.431 324.49-36.432 38.727H19.41v18.586H6.51v-32.28H200l24.026-25.033z"/><path fill="gray" d="m236.431 324.49-36.432 38.727V382h-181v10h193.399l24.033-23.031z"/><path stroke="#000" stroke-width="7" d="m213.222 320.996-25.223 25.022H37.585v-25.022"/><path stroke="#000" stroke-width="6" fill="#FF0" stroke-linejoin="round" d="m288.129 71.273-83.984 90.514h58.294L108.258 279.775l86.053-92.015h-61.7z"/></g></svg>