<svg xmlns="http://www.w3.org/2000/svg" viewBox="0 0 48 48" width="480" height="480"><path fill="#78909c" d="M22.75 1h1.5v9h-1.5z"/><path fill="#78909c" d="M19 4.75h9v1.5h-9z"/><path fill="#5c6bc0" d="M40.75 19h1.5v9h-1.5z"/><path fill="#5c6bc0" d="M37 22.75h9v1.5h-9z"/><path fill="#78909c" d="M4.75 19h1.5v9h-1.5z"/><path fill="#78909c" d="M1 22.75h9v1.5H1z"/><path fill="#5c6bc0" d="M22.75 37h1.5v9h-1.5z"/><path fill="#5c6bc0" d="M19 40.75h9v1.5h-9z"/><path fill="#e8762d" d="M15 22h17v3H15z"/><path fill="#e8762d" d="M22 15h3v17h-3z"/><path fill="#ffa000" d="M11 6h2v14h-2z"/><path fill="#ffa000" d="M5 12h14v2H5z"/><path fill="#607d8b" d="M34 6h2v14h-2z"/><path fill="#607d8b" d="M28 12h14v2H28z"/><path fill="#c62828" d="M11 27h2v14h-2z"/><path fill="#c62828" d="M5 33h14v2H5z"/><path fill="#0d47a1" d="M34 27h2v14h-2z"/><path fill="#0d47a1" d="M28 33h14v2H28z"/></svg>