<?xml version="1.0" encoding="UTF-8"?>
<!DOCTYPE svg PUBLIC "-//W3C//DTD SVG 1.1//EN" "http://www.w3.org/Graphics/SVG/1.1/DTD/svg11.dtd">
<!-- Creator: CorelDRAW 2021 (64-Bit) -->
<svg xmlns="http://www.w3.org/2000/svg" xml:space="preserve" width="23.953mm" height="17.386mm" version="1.1" style="shape-rendering:geometricPrecision; text-rendering:geometricPrecision; image-rendering:optimizeQuality; fill-rule:evenodd; clip-rule:evenodd"
viewBox="0 0 2395.3 1738.6"
 xmlns:xlink="http://www.w3.org/1999/xlink"
 xmlns:xodm="http://www.corel.com/coreldraw/odm/2003">
 <defs>
  <style type="text/css">
   <![CDATA[
    .str0 {stroke:#404D63;stroke-width:20;strokeLinecap:round;stroke-linejoin:round;stroke-miterlimit:22.9256}
    .fil4 {fill:none}
    .fil3 {fill:none;fill-rule:nonzero}
    .fil1 {fill:#404D63;fill-rule:nonzero}
    .fil0 {fill:#809BC8;fill-rule:nonzero}
    .fil2 {fill:white;fill-rule:nonzero}
   ]]>
  </style>
 </defs>
 <g id="Layer_x0020_1">
  <metadata id="CorelCorpID_0Corel-Layer"/>
  <g id="_2488253836240">
   <polygon class="fil0" points="89.25,27.76 2324.66,27.76 2324.66,1721.08 89.25,1721.08 "/>
   <ellipse class="fil1" cx="2075.29" cy="492.07" rx="29.95" ry="55.75"/>
   <path class="fil1" d="M2189.37 492.1c0,30.8 -17.46,55.72 -33.95,55.72 -16.54,0 -10.13,-24.98 -10.13,-55.72 0,-30.74 -6.4,-55.72 10.13,-55.72 16.53,0 33.92,24.92 33.92,55.72l0.03 0z"/>
   <path class="fil2" d="M1640.1 1074.12c0,0 84.75,17.04 88.19,108.56 0,0 -208.49,32.28 -169.52,198.36 0,0 -76.28,-8.47 -94.99,-35.67 -18.63,-27.07 -44.03,-89.83 -18.63,-137.27 25.4,-47.55 111.87,-152.66 195,-133.99l-0.05 0.01z"/>
   <path class="fil1" d="M1573.34 1393.95l-15.82 -1.75c-8.47,-0.93 -82.02,-9.92 -103.19,-40.48 -22.49,-32.49 -46.04,-98.95 -19.31,-148.96 24.87,-46.3 102.66,-142.08 184.94,-142.08 7.41,0 15.08,0.79 22.49,2.46 0.53,0.13 93.13,19.84 96.84,119.12l0.26 9.97 -10.05 1.59c-1.06,0.13 -101.6,16.51 -144.99,80.96 -19.58,29.02 -24.61,63.9 -15.35,103.72l3.44 15.45 0.74 0zm46.84 -310.81c-71.44,0 -143.27,89.69 -165.1,130.44 -21.83,40.75 -0.53,98.69 17.99,125.68 9.58,14.02 44.37,24.08 71.65,28.84 -6.09,-39.69 1.22,-75.14 21.7,-105.3 40.75,-60.33 121.31,-82.55 149.91,-88.64 -8.2,-73.29 -77.52,-88.11 -78.32,-88.37 -5.82,-1.32 -11.64,-1.85 -17.73,-1.85l-0.1 -0.8z"/>
   <path class="fil1" d="M1738.44 1363.36l-0.53 -17.73c-0.05,-1.14 -4.23,-114.88 -62.28,-139.81l-18.84 -8.1 61.1 -41.58 6.61 6.83c3.49,3.65 85.46,90.14 65.51,169.86l-1.24 4.95 -50.54 25.59 0.21 -0.01zm-37.3 -168.59c42.52,31.49 54.61,100.41 57.94,132.82l10.19 -5.11c10.11,-54.85 -37.17,-116.34 -54.69,-136.84l-13.41 9.13 -0.03 0z"/>
   <g>
    <path class="fil2" d="M1610.89 1231.73c0,0 63.13,78.05 56.36,139.07 0,0 -30.53,42.44 -100.01,10.24 0,-0.11 -36.43,-91.65 43.66,-149.3l-0.01 -0.01zm0 0l0 0 0 0z"/>
   </g>
   <path class="fil1" d="M1615.92 1404.32c-16.67,0 -34.66,-4.39 -53.45,-13.1l-9.1 -4.23 1.98 -5.93c-6.67,-20.37 -27.52,-103.19 49,-158.22l8.47 -6.09 6.61 8.47c2.65,3.44 65.88,82.55 58.74,147.37l-0.53 2.91 -1.85 2.38c-1.06,1.32 -20.11,26.99 -60.59,26.99l0.72 -0.55zm-39.69 -31.56c14.21,6.09 27.52,9.1 39.69,9.1 22.94,0 35.9,-10.85 40.43,-15.61 2.8,-43.66 -32.46,-97.63 -47.55,-118.53 -52.6,44.98 -38.15,107.16 -32.54,125.15l-0.03 -0.11z"/>
   <path class="fil2" d="M1446.82 1190.86c0,0 106.81,40.88 213.6,-169.55 0,0 -57.68,20.37 -106.79,0 0,0 -53.18,149.49 -106.81,169.55z"/>
   <path class="fil2" d="M1341.75 1211.57c0,0 -113.56,-64.45 -213.57,-49.21 -100.07,15.27 -259.4,71.23 -232.25,193.41 27.12,121.97 189.84,115.17 189.84,115.17 0,0 76.2,-196.66 255.85,-181.35l0 -78.05 0.13 0.03z"/>
   <path class="fil1" d="M1081.19 1482.24c-28.15,0 -169.99,-6.01 -196.24,-124.09 -7.94,-35.59 -1.85,-68.47 18.26,-97.71 53.18,-77.87 184.15,-103.24 223.04,-109.17 10.58,-1.67 21.96,-2.49 33.6,-2.49 92.6,0 183.09,50.85 187.06,53l5.56 3.23 0 96.84 -12.17 -1.06c-169.6,-14.45 -243.95,172.4 -244.74,174.23l-15.09 7.23 0.72 -0.01zm79.03 -310.96c-10.1,-0.02 -20.34,0.73 -30.34,2.18 -75.49,11.54 -169.78,43.71 -208.09,99.67 -16.14,23.89 -21.17,50.88 -14.82,80.17 21.96,97.9 141.02,105.99 171.45,106.36 16.14,-35.11 94.46,-187.64 252.15,-182.03l-0.01 -59.31c-20.9,-10.93 -96.31,-47.04 -170.13,-47.04l-0.21 0z"/>
   <path class="fil2" d="M1270.56 1486.21c0,0 32.23,-15.35 45.77,-39 0,0 10.19,-112.71 -39,-153.72 0,0 -44.19,-6.09 -76.46,39.95 0,0 69.32,92.08 69.32,152.93l0.37 -0.16z"/>
   <path class="fil1" d="M1270.56 1497.45c0,0 -0.01,0 -0.02,0 -6.2,0 -11.22,-5.02 -11.22,-11.22 0,-0.01 0,-0.02 0,-0.03 0,-53.71 -60.19,-136.71 -67.07,-146 -1.51,-2.04 -2.32,-4.51 -2.32,-7.05 0,-1.72 0.37,-3.43 1.09,-4.99 37.84,-54.24 87.89,-45.96 87.84,-45.96 2.06,0.26 4.1,1.19 5.69,2.51 53.08,44.45 43.39,158.7 42.94,163.51 -0.1,1.63 -0.59,3.21 -1.42,4.62 -15.08,26.46 -49.21,42.86 -50.54,43.55 -1.49,0.64 -3.11,1 -4.75,1.05l-0.22 0.01zm-50.51 -165.15c16.4,23.02 56.36,83.34 65.03,134.22 8.47,-5.56 18.79,-13.76 25.14,-23.81 1.06,-15.88 4.97,-103.98 -32.49,-139.44 -10.05,0 -35.72,2.65 -57.68,29.1l0 -0.07z"/>
   <g>
    <path class="fil2" d="M1341.75 1289.49c0,0 -82.6,-13.55 -46.36,25.93 38.95,42.47 12.83,142.53 12.83,142.53 36.06,17.73 57.23,-20.98 57.23,-20.98 28.84,-103.72 -23.71,-147.48 -23.71,-147.48l0.01 0zm0 0l0 0 0 0z"/>
   </g>
   <path class="fil1" d="M1326.83 1473.91c-7.81,0 -15.74,-1.98 -23.55,-5.82l-8.26 -4.07 2.3 -8.89c6.8,-26.19 18.26,-100.99 -10.24,-132.08 -4.1,-4.5 -16.62,-18.1 -10.58,-31.88 6.01,-13.57 24.42,-15.13 37.78,-15.13 14.55,0 28.68,2.38 29.26,2.38l3.02 0.53 2.38 2.12c2.38,2.12 57.76,49.74 27.33,159.28 -1.85,3.7 -18.52,33.87 -49.48,33.87l0.04 -0.31zm-5.42 -23.13c20.06,4.23 34.08,-19.05 34.21,-19.26 22.49,-81.84 -10.05,-122.18 -19,-131.42 -4.66,-0.53 -13.55,-1.59 -22.3,-1.59 -9.97,0 -14.68,1.32 -16.62,2.12 0.79,0.79 2.38,3.44 5.82,7.41 35.19,38.63 23.28,115.36 17.73,143.14l0.16 -0.4zm-3.04 -217.17c-0.01,-0.01 -0.02,-0.01 -0.03,-0.01 -1.26,0 -2.5,-0.3 -3.62,-0.87l-3.28 -1.72c-0.93,-0.53 -71.28,-36.7 -162.27,-36.7 -53.5,0 -103.98,12.33 -149.91,36.62l-2.91 1.59c-1.24,0.62 -2.59,0.95 -3.97,0.98l-3.45 0.01c-24.34,0 -207.42,-41.01 -228.06,-45.67l-297.92 -156.16c-323.56,-184.03 -341.81,-240.65 -327.53,-267.27 7.67,-14.21 28.84,-23.39 53.9,-23.39 7.41,0 15.08,0.85 22.49,2.49 33.87,7.41 67.47,16.4 102.79,25.93 59,15.77 119.86,32.09 186.08,41.88 85.06,-160.87 278.74,-424.31 637.5,-424.31 308.85,0 366.02,114.41 411.96,206.32 25.66,51.2 45.85,91.6 104.25,109.27 17.33,-0.53 117.13,-4.66 145.52,-70.43 9.39,-21.78 17.07,-50.72 25.21,-81.39 23.94,-90.3 50.72,-191.35 137.05,-191.35 2.23,0.02 4.52,0.1 6.89,0.22 3.18,0.16 6.09,2.28 7.14,5.34l-8.57 16.14c1.06,2.91 14.55,9.63 12.17,11.77 0,0.05 -3.7,9.95 -5.03,17.62 -5.56,22.49 -8.2,44.45 -8.2,67.2 0,85.2 38.89,159.81 83.34,159.81 17.46,0 36.78,-16.67 50.01,-32.81l11.11 -14.55c1.32,-2.38 4.5,-8.2 7.14,-8.2l0.27 0.01c2.91,0 5.29,1.59 6.61,4.23 0,0 10.05,18.26 25.93,22.23 1.85,0.53 3.97,0.79 6.35,0.79 7.14,0 15.35,-2.12 23.28,-3.97 7.94,-2.12 15.88,-3.97 22.75,-3.97 24.87,0.79 71.17,32.81 91.02,68.79 12.7,23.02 13.49,44.98 2.38,63.76 -33.87,57.41 -66.94,67.47 -126.74,85.2 -11.64,3.44 -24.34,7.14 -38.63,11.64 -15.35,9.79 -105.3,62.96 -200.03,62.96l-1.81 0.01c-26.51,39.03 -120.12,147.11 -339.99,147.11 -10.76,0 -21.78,-0.27 -33.07,-0.8 -19.45,50.09 -85.88,186.27 -234.42,192.22l-3.97 0.19 0.27 1.24z"/>
   <path class="fil1" d="M1315.08 1223.98c-0.69,-0.48 -72.31,-37.57 -165.89,-37.57 -54.93,0 -106.63,12.7 -153.64,37.52l-3.18 1.67 -3.44 0c-24.34,0 -226.47,-45.51 -226.47,-45.51l-295.78 -155.45c-158.22,-90.01 -349.06,-210.41 -324.38,-256.45 8.15,-14.9 37.31,-23.65 67.92,-16.93 92.6,20.32 186.53,53.39 295.01,68.71 84.48,-162.13 276.31,-425.02 632.95,-425.02 303.82,0 359.91,111.92 404.89,201.93 25.4,50.75 47.36,94.64 109.01,113.35 19.5,-0.16 124.67,-4.39 155.1,-74.88 9.79,-22.62 17.52,-52.28 25.93,-83.66 22.75,-86.33 48.74,-184.31 129.12,-184.31 1.96,0 4.23,0.08 6.35,0.19l-7.86 21.83c0,0 7.94,9.34 6.43,19.98 -5.29,22.54 -7.94,45.19 -7.94,68.58 0,90.94 41.8,167.83 91.28,167.83 20.37,0 43.92,-4.63 60.33,-29.21l8.2 -25.88c0,0 11.38,21.22 30.96,26.27 16.67,4.5 40.48,-7.14 55.3,-6.88 30.43,1.06 116.68,68.26 85.99,120.91 -38.36,65.62 -73.29,65.62 -160.6,93.66 -14.82,9.26 -104.51,62.43 -197.64,62.43l-7.15 0c-20.11,31.49 -110.33,147.37 -335.76,147.37 -12.44,0 -25.14,-0.26 -38.36,-1.06 -14.82,40.75 -78.85,186.53 -229.39,192.62l-3.7 0.26 -3.18 -1.59 -0.41 -0.71z"/>
   <path class="fil2" d="M2219.17 636.62c-63.82,-35.37 -91.47,-26.99 -100.2,-21.38 -22.49,35.51 -48.15,35.77 -74.35,35.77 -57.94,0 -98.95,-72.84 -98.95,-173.04 0,-25.06 2.91,-48.87 8.2,-70.56 2.12,-15.88 13.76,-26.19 13.76,-26.19 -101.86,-6.61 -110.86,173.04 -148.17,259.56 -37.31,86.52 -169.6,83.08 -169.6,83.08 -186.53,-54.24 -44.19,-315.12 -511.97,-315.12 -424.09,-0.3 -606.39,393.93 -627.82,433.35 -133.4,-21.85 -324.38,-108.16 -348.19,-64.03 -23.65,44.08 311.41,234.83 311.41,234.83l305.7 168.62c0,0 186.44,30.43 210.18,30.43 166.11,-88.11 332.26,0 332.26,0 166.11,-6.88 220.35,-193.41 220.35,-193.41 288.13,20.37 376.32,-145.79 376.32,-145.79 101.73,6.61 206.8,-61.11 206.8,-61.11 30.6,-7.49 60.37,-18.79 88.18,-33.58 24.82,-13.23 49.21,-28.58 60.38,-50.8 23.76,-47.36 -54.24,-91.02 -54.24,-91.02l-0.05 0.39z"/>
   <path class="fil2" d="M476.1 899.23c0,0 26.27,-13.89 135.65,19.79 63.24,19.58 161.55,129.06 238.43,149.44 0,0 75.67,50.85 170.66,0 0,0 39.53,-39.63 132.21,-35.03 92.6,4.45 164.99,44.03 210.19,41.7 45.19,-2.22 99.48,-82.47 116.42,-162.72 16.93,-80.16 69.98,-230.5 133.35,-253.12 63.24,-22.49 74.53,55.56 74.53,55.56 0,0 -94.91,54.24 -100.59,120.91 0,0 -19.84,128.31 -37.04,183.61 -17.2,55.56 -37.04,203.73 -207.96,208.23 0,0 -88.9,-49.48 -195.53,-45.51 -85.73,3.44 -103.98,30.43 -164.84,36.25 -62.18,6.09 -134.67,-12.96 -202.13,-36.25 -133.61,-46.04 -237.6,-112.45 -361.42,-185.21 0,0.26 -116.42,-71.44 58.74,-96.84l-0.67 -0.81z"/>
   <path class="fil1" d="M1338.95 1238.59l-2.7 -1.51c-0.79,-0.53 -87.13,-48.15 -189.65,-44.45 -46.99,1.85 -72.71,10.85 -97.58,19.58 -19.16,6.61 -38.95,13.76 -66.75,16.4 -55.03,5.29 -118.48,-6.61 -207.03,-37.04 -118.8,-41.01 -212.04,-96.57 -319.99,-160.6l-43.66 -25.93 0.21 -0.53c-13.39,-6.61 -41.8,-30.69 -43.58,-54.77 -3.44,-46.04 76.2,-58.21 104.78,-62.18 9,-3.44 37.31,-12.44 141.82,19.84 31.22,9.53 68.79,38.63 108.48,69.32 44.45,34.13 90.21,69.59 129.37,79.9l3.18 1.59c0.26,0 31.75,20.64 77.79,20.64 26.99,0 53.71,-6.88 79.64,-20.64 8.2,-7.41 51.33,-41.28 139.44,-37.04 51.86,2.38 97.9,15.88 135.2,26.72 28.05,8.2 52.12,15.08 70.38,15.08l3.17 0.01c38.1,-1.85 89.69,-76.73 105.83,-153.72 12.7,-59.26 65.35,-234.41 140.49,-261.4 8.73,-3.18 17.46,-4.76 25.4,-4.76 42.86,0 60.59,45.24 64.03,69.06l1.06 7.41 -6.61 3.97c-1.06,0.53 -89.96,52.12 -94.99,111.92 -1.06,6.09 -20.37,130.43 -37.57,185.99 -1.85,5.56 -3.7,12.44 -5.56,19.84 -17.99,67.2 -51.59,192.09 -212.99,196.32l-3.17 0 1.56 0.98zm-180.39 -68.42c93.48,0 170.18,37.57 185.84,45.77 142.08,-5.11 171.37,-114.19 188.91,-179.55 2.06,-7.73 3.92,-14.66 5.77,-20.56 16.72,-53.98 36.51,-180.7 36.78,-182.02 5.13,-60.59 75.94,-109.99 99.01,-124.62 -3.57,-13.76 -14.21,-42.78 -40.27,-42.78 -5.44,0 -11.37,1.14 -17.81,3.44 -55.03,19.58 -107.95,157.69 -126.21,244.89 -16.67,79.03 -73.03,168.96 -127,171.61l-4.5 0.11c-21.43,0 -47.1,-7.41 -76.73,-16.03 -37.84,-10.95 -80.7,-23.42 -130.18,-25.77 -85.99,-4.58 -123.56,31.43 -123.83,31.8l-2.65 1.91c-29.63,15.88 -60.59,23.92 -91.81,23.92 -47.63,0 -80.96,-18.65 -88.9,-23.44 -43.12,-12.01 -90.21,-48.31 -135.72,-83.48 -38.1,-29.37 -74.08,-57.15 -101.6,-65.62 -99.48,-30.64 -127.53,-20.37 -127.79,-20.32l-3.18 0.93c-74.08,10.66 -85.46,28.23 -87.05,35.3 -2.91,14.39 22.23,34.66 32.01,40.48l43.92 26.01c106.89,63.45 199.23,118.27 315.91,158.49 51.85,17.94 131.49,42.23 197.37,35.98 24.87,-2.46 42.6,-8.68 61.38,-15.29 25.14,-9 53.71,-19.05 104.25,-21.17 4.23,-0.26 8.47,-0.26 12.7,-0.26l1.38 0.27z"/>
   <path class="fil2" d="M656.92 1095.63c0,0 -38.44,-70.04 -122.03,-90.41 -83.61,-20.37 -99.48,0 -99.48,0 0,0 -112.98,140.15 -101.65,266.7 11.33,126.55 90.41,112.98 90.41,112.98 0,0 12.75,-140.1 88.9,-149.23 76.09,-8.94 143.88,-6.75 143.88,-6.75l0 -133.09 -0.03 -0.2z"/>
   <path class="fil1" d="M417.58 1396.57c-19.71,0 -84.77,-8.92 -94.99,-123.67 -11.64,-129.57 99.35,-268.87 104.09,-274.74 2.33,-3.18 12.83,-13.49 45.24,-13.49 18.04,0 40.11,3.18 65.62,9.26 87.39,21.17 127.53,92.87 129.22,95.78l1.4 2.38 0 147.64 -11.59 -0.53c-0.11,0 -7.28,-0.26 -19.5,-0.26 -23.87,0 -71.54,1.06 -122.71,6.88 -55.03,6.61 -75.67,102.66 -78.98,138.91l-0.79 8.47 -8.47 1.59c-0.05,0 -3.23,0.53 -8.55,0.53l0.01 1.25zm54.37 -389.2c-21.96,0 -28.31,5.45 -28.31,5.56 -0.79,0.71 -109.54,137.5 -98.69,257.97 7.67,87.92 48.42,101.81 69.06,103.08 4.5,-33.73 25.14,-140.76 97.63,-149.41 59.27,-7.01 112.45,-7.25 133.88,-7.06l-0.01 -118.78c-7.41,-11.91 -44.45,-65.72 -113.51,-82.55 -23.81,-5.82 -44.19,-8.78 -60.33,-8.78l0.28 -0.03z"/>
   <path class="fil2" d="M424.14 1384.95c0,0 42.92,54.24 144.67,40.67 0,0 27.12,-138.69 0,-194.73 0,0 -54.61,-17.86 -97.42,27.41 -42.76,45.24 -47.25,126.74 -47.25,126.74l0 -0.09z"/>
   <path class="fil1" d="M537.01 1439.06c-83.45,0 -120.17,-45.19 -121.71,-47.1l-2.65 -3.36 0.26 -4.23c0.16,-3.52 5.21,-86.07 50.27,-133.8 48.42,-51.33 107.95,-30.96 109.09,-30.43l4.76 1.32 2.12 4.23c28.58,58.74 2.12,196.06 1.06,201.88l-1.59 7.94 -7.94 1.06c-11.11,1.32 -22.49,2.12 -33.07,2.12l-0.6 0.37zm-101.28 -58.02c9.13,9.13 40.56,35.51 101.28,35.51 7.21,0 14.62,-0.38 22.22,-1.14 4.95,-29.1 19.98,-128.32 1.48,-175.15 -12.83,-2.65 -50.06,-7.41 -81.15,25.4 -33.81,35.72 -42.12,97.63 -43.82,114.83l-0.01 0.55z"/>
   <path class="fil2" d="M611.73 1229.01c0,0 40.61,94.88 24.82,183.09 0,0 -8.41,13.41 -67.81,13.57 0,0 33.87,-161.26 0,-194.73l42.99 -1.93z"/>
   <path class="fil1" d="M554.87 1436.94l2.86 -13.63c12.7,-60.06 24.61,-163.2 3.18,-184.41l-18.26 -18.15 76.46 -3.36 3.18 7.14c1.85,3.97 41.8,99.03 25.66,189.49l-1.59 3.97c-3.44,5.64 -17.99,18.71 -77.26,18.86l-13.76 0.08 -0.47 0.01zm32.75 -195.6c16.4,44.85 2.38,134.01 -5.03,172.77 28.05,-1.27 39.69,-5.9 43.66,-8.1 11.11,-69.06 -13.49,-142.61 -21.96,-165.42l-16.4 0.74 -0.27 0.01z"/>
   <path class="fil2" d="M636.54 1411.99c0,0 56.52,-10.42 67.84,-26.72 0,0 -6.77,-113.37 -47.47,-156.37l-45.14 0.05c-0.05,0.05 45.14,101.73 24.79,183.09l-0.02 -0.05z"/>
   <path class="fil1" d="M621.41 1426.28l4.23 -17.01c18.2,-72.71 -19.69,-165.23 -24.08,-175.55l-2.96 -7.01 8.52 -9 54.61 -0.08 3.33 3.55c43.02,45.43 50.27,158.62 50.54,163.43l0.26 3.89 -2.25 3.18c-12.96,18.65 -60.67,28.73 -75.01,31.38l-17.2 3.18 0.01 0.04zm6.88 -186.08c11.54,31.27 31.49,96.73 22.6,157.16 17.81,-4.5 35.03,-10.72 41.88,-16.14 -1.75,-20.72 -10.53,-104.17 -40.93,-141.02l-23.55 0z"/>
   <g>
    <path class="fil2" d="M510.07 814.97c0,0 -18.92,58.89 -15.16,79.44l15.16 -79.44zm0 0l0 0 0 0z"/>
   </g>
   <path class="fil1" d="M487.37 895.9c3.44,-51.45 20.72,-74.68 22.75,-80.95l7.3 2.38c-5.11,15.88 -17.78,60.47 -14.92,75.82l-15.13 2.75zm1500.92 -146.68c-1.41,-1.25 -3.24,-1.94 -5.14,-1.94 -2.19,0 -4.27,0.92 -5.75,2.53 -2.8,3.1 -2.12,7.49 0.53,10.85 40.32,51.33 85.54,66.2 113.08,70.04 6.14,-4.5 78.74,-29.37 84.19,-34.13 -34.93,3.97 -129.7,4.5 -186.93,-47.36l0.02 0.01z"/>
   <path class="fil3" d="M2109.6 362.48c-0.14,0.21 -0.32,0.41 -0.53,0.58 -1358.36,-233.54 -2039.79,-352.7 -2044.29,-357.5l0.4 -0.53c-13.49,-14.23 -29.29,-22.57 -46.3,-22.57 -49.37,0 -89.48,69.37 -89.48,154.86 0,26.72 3.92,51.86 10.8,73.87 15.13,48.26 44.71,81.02 78.69,81.02 14.87,0 28.79,-6.35 41.12,-17.38 1.85,-1.67 3.62,-3.84 5.45,-5.69l-0.42 -0.53c4.63,-4.9 8.81,-10.26 12.42,-15.96 0.15,0.23 0.33,0.43 0.52,0.58 18.57,-28.58 30.43,-69.85 30.43,-115.89 0,-46.57 -11.77,-87.84 -30.43,-116.15l2031.62 341.29zm-2032.49 153.78c0.11,-0.08 0,0 0,0"/>
   <path class="fil1" d="M2164.69 305.7c-20.8,-3.7 -47.52,4.82 -61.81,21.54 4.5,4.76 9.53,7.94 12.7,12.96 11.38,-11.64 24.61,-16.4 49.21,-16.4 42.33,0 79.38,82.55 79.38,155.31 0,51.06 -16.67,95.25 -41.28,117.21 -10.58,9.53 -22.49,14.82 -34.93,14.82 -14.02,0 -27.25,-6.88 -38.89,-18.79 -1.59,12.96 -11.38,14.02 -11.38,14.02 14.55,16.93 31.75,26.99 50.54,26.99 22.49,0 42.6,-14.29 58.47,-37.57 19.05,-28.31 31.22,-70.11 31.22,-116.95 0.26,-85.2 -38.1,-162.98 -92.34,-172.77l-0.89 -0.37z"/>
   <path class="fil1" d="M2121.69 610.16c20.58,-33.07 33.68,-79.75 33.68,-132.16 0,-44.19 -9.42,-83.61 -24.53,-115.09 -7.78,-13.76 -21.11,-33.07 -25.08,-38.63 -16.06,-17.46 -34.87,-27.78 -55.19,-27.78 -43.44,0 -80.7,45.51 -96.63,110.86 -5.29,21.7 -8.2,45.51 -8.2,70.38 0,100.01 46.83,172.77 104.78,172.77 21.91,0 42.15,-3.44 58.95,-23.28l12.22 -17.46 0 0.39zm-8.57 -0.53c0.11,0.16 -10.37,6.22 -10.24,6.48 -1.59,1.85 -9.26,-1.85 -11.11,-0.26 -12.17,10.85 -26.19,17.46 -41.01,17.46 -66.94,0 -83.34,-128.85 -83.34,-155.58 0,-85.46 34.13,-154.52 83.34,-154.52 16.93,0 49.48,17.2 58.74,39.42 9.26,22.22 30.96,69.06 30.96,115.36 0,46.3 -11.64,87.58 -30.43,115.89 0,-0.26 7.41,11.11 3.44,15.08l-0.35 0.67zm8.57 0.53c0,0 0.11,-0.11 0,0 0.48,0.53 0.93,0.85 1.38,1.32 0.19,-1.27 0.42,-2.38 0.45,-3.76l-1.59 2.43 -0.24 0.01z"/>
   <line class="fil4 str0" x1="1270.56" y1="1486.21" x2="1091.49" y2= "1470.94" />
   <line class="fil4 str0" x1="1672.95" y1="1370.8" x2="1755.97" y2= "1345.63" />
  </g>
 </g>
</svg>
